# xmcd
#
# Track frame offsets:
#	150
#	15176
#	29502
#	51304
#	65780
#	80761
#	99501
#	117690
#	130418
#	149899
#	168877
#	186846
#	199762
#	215737
#	230394
#	250108
#
# Disc length: 3550 seconds
#
# Revision: 3
# Processed by: cddbd v1.5.2PL0 Copyright (c) Steve Scherf et al.
# Submitted via: EasyCDDAExtractor 2010.6.0.0
#
DISCID=f40ddc10
DTITLE=Gino Sound Orchetra and Singers - Bella Italia CD 1
DYEAR=1900
DGENRE=Country
TTITLE0=Felicita
TTITLE1=Santa Lucia Luntana
TTITLE2=Kalimba del luna
TTITLE3=Non so che darei
TTITLE4=Per una bambola
TTITLE5=Amico  
TTITLE6=Maledetta primavera
TTITLE7=Mamma Maria
TTITLE8=Yuppi du
TTITLE9=Una notte speciale
TTITLE10=Canzone d`amore
TTITLE11=O sole mio
TTITLE12=Made in Italy
TTITLE13=Per Elisa
TTITLE14=Un angelo
TTITLE15=Che angelo sei
EXTD=
EXTT0=\n
EXTT1=\n
EXTT2=\n
EXTT3=
EXTT4=
EXTT5=
EXTT6=
EXTT7=
EXTT8=
EXTT9=
EXTT10=
EXTT11=
EXTT12=
EXTT13=
EXTT14=
EXTT15=
PLAYORDER=
